<?xml version="1.0" encoding="UTF-8" standalone="no"?>
<svg width="193px" height="80px" viewBox="0 0 193 80" version="1.1" xmlns="http://www.w3.org/2000/svg" xmlns:xlink="http://www.w3.org/1999/xlink" xmlns:sketch="http://www.bohemiancoding.com/sketch/ns">
    <!-- Generator: Sketch 3.0.1 (7597) - http://www.bohemiancoding.com/sketch -->
    <title>epi-logo-white</title>
    <description>Created with Sketch.</description>
    <defs></defs>
    <g id="Page-1" stroke="none" stroke-width="1" fill="none" fill-rule="evenodd" sketch:type="MSPage">
        <g id="logo" sketch:type="MSLayerGroup">
            <g id="Group" transform="translate(57.000000, 10.000000)" fill="#FFFFFF" sketch:type="MSShapeGroup">
                <path d="M-0.029,14.727 L-0.029,0.66 L9.663,0.66 L9.663,2.787 L3.017,2.787 L3.017,6.365 L8.6,6.365 L8.6,8.369 L3.018,8.369 L3.018,12.581 L9.95,12.581 L9.95,14.727 L-0.029,14.727 L-0.029,14.727 Z" id="Shape"></path>
                <path d="M18.563,14.727 L18.563,8.511 C18.563,7.468 18.399,6.712 17.132,6.712 C16.457,6.712 15.517,7.06 14.842,7.468 L14.842,14.727 L11.898,14.727 L11.898,4.688 L14.679,4.688 L14.72,5.608 L14.802,5.649 C15.968,4.872 17.378,4.443 18.34,4.443 C20.998,4.443 21.488,6.017 21.488,7.898 L21.488,14.727 L18.563,14.727 L18.563,14.727 Z" id="Shape"></path>
                <path d="M28.139,12.785 C28.241,12.519 28.793,10.188 29.12,9.145 C29.57,7.836 30.408,4.974 30.51,4.688 L33.454,4.688 C32.718,6.753 30.735,12.682 29.999,14.727 L26.012,14.727 C25.296,12.682 23.292,6.753 22.577,4.688 L25.644,4.688 L27.096,9.35 C27.321,10.065 27.791,12.089 28.037,12.785 L28.139,12.785 L28.139,12.785 Z" id="Shape"></path>
                <path d="M36.439,3.461 C35.355,3.461 34.762,2.766 34.762,1.906 C34.762,1.007 35.375,0.332 36.439,0.332 C37.564,0.332 38.176,1.007 38.176,1.906 C38.177,2.766 37.564,3.461 36.439,3.461 L36.439,3.461 Z M34.987,14.727 L34.987,4.688 L37.911,4.688 L37.911,14.727 L34.987,14.727 L34.987,14.727 Z" id="Shape"></path>
                <path d="M43.406,6.466 C44.51,5.383 46.105,4.422 47.23,4.422 C47.639,4.422 47.802,4.667 47.802,5.097 C47.802,5.853 47.311,7.387 46.882,7.98 L43.467,7.939 L43.467,14.727 L40.543,14.727 L40.543,4.688 L43.426,4.688 C43.426,5.158 43.365,5.935 43.304,6.406 L43.406,6.466 L43.406,6.466 Z" id="Shape"></path>
                <path d="M53.526,14.932 C49.805,14.932 48.516,12.601 48.516,9.718 C48.516,6.896 49.948,4.463 53.649,4.463 C57.39,4.463 58.678,6.896 58.678,9.697 C58.679,12.499 57.351,14.932 53.526,14.932 L53.526,14.932 Z M53.649,6.528 C51.972,6.528 51.522,8.143 51.522,9.718 C51.522,11.496 51.87,12.866 53.649,12.866 C55.305,12.866 55.653,11.373 55.653,9.718 C55.653,8.123 55.326,6.528 53.649,6.528 L53.649,6.528 Z" id="Shape"></path>
                <path d="M66.999,14.727 L66.999,8.511 C66.999,7.468 66.835,6.712 65.567,6.712 C64.892,6.712 63.952,7.06 63.277,7.468 L63.277,14.727 L60.333,14.727 L60.333,4.688 L63.113,4.688 L63.154,5.608 L63.236,5.649 C64.401,4.872 65.812,4.443 66.773,4.443 C69.431,4.443 69.922,6.017 69.922,7.898 L69.922,14.727 L66.999,14.727 L66.999,14.727 Z" id="Shape"></path>
                <path d="M84.684,14.727 L84.684,8.369 C84.684,7.265 84.398,6.733 83.355,6.733 C82.721,6.733 81.781,7.04 81.209,7.428 C81.271,7.857 81.291,8.368 81.291,8.737 L81.291,14.727 L78.407,14.727 C78.407,12.539 78.386,10.352 78.386,8.164 C78.386,7.224 77.957,6.754 77.18,6.754 C76.505,6.754 75.667,7.061 74.972,7.489 L74.972,14.727 L72.048,14.727 L72.048,4.688 L74.788,4.688 L74.849,5.69 L74.931,5.731 C76.077,4.872 77.446,4.463 78.407,4.463 C79.553,4.463 80.33,4.871 80.841,5.772 C81.822,5.015 83.397,4.463 84.46,4.463 C87.139,4.463 87.629,6.119 87.629,8 L87.629,14.727 L84.684,14.727 L84.684,14.727 Z" id="Shape"></path>
                <path d="M98.83,9.33 L98.83,10.373 L92.267,10.373 C92.267,11.906 92.983,12.724 94.783,12.724 C95.867,12.724 96.971,12.479 98.013,12.09 L98.606,13.89 C97.277,14.626 95.744,14.892 94.353,14.892 C90.304,14.892 89.324,12.479 89.324,9.719 C89.324,7.51 90.264,4.423 94.23,4.423 C98.544,4.422 98.83,7.53 98.83,9.33 L98.83,9.33 Z M92.308,8.573 L96.173,8.573 C96.152,7.244 95.743,6.283 94.353,6.283 C92.901,6.283 92.41,7.367 92.308,8.573 L92.308,8.573 Z" id="Shape"></path>
                <path d="M107.396,14.727 L107.396,8.511 C107.396,7.468 107.232,6.712 105.964,6.712 C105.289,6.712 104.349,7.06 103.674,7.468 L103.674,14.727 L100.73,14.727 L100.73,4.688 L103.51,4.688 L103.551,5.608 L103.633,5.649 C104.799,4.872 106.209,4.443 107.17,4.443 C109.828,4.443 110.319,6.017 110.319,7.898 L110.319,14.727 L107.396,14.727 L107.396,14.727 Z" id="Shape"></path>
                <path d="M116.023,1.907 L116.023,4.668 L118.947,4.668 L118.947,6.59 L116.023,6.59 L116.023,11.129 C116.023,12.192 116.33,12.683 117.373,12.683 C117.741,12.683 118.375,12.581 119.11,12.417 L119.478,14.318 C118.62,14.707 117.475,14.891 116.616,14.891 C113.815,14.891 113.14,13.5 113.14,11.906 L113.14,6.59 L111.729,6.59 L111.729,4.995 L113.324,4.524 C113.468,4.176 113.917,2.46 114.04,2.112 L116.023,1.907 L116.023,1.907 Z" id="Shape"></path>
                <path d="M129.578,12.785 L130.887,12.785 L131.03,14.421 C130.376,14.728 129.435,14.933 128.577,14.933 C127.697,14.933 127.063,14.728 126.962,13.726 C126.962,13.705 126.941,13.705 126.921,13.685 C125.51,14.913 124.018,14.933 123.445,14.933 C120.95,14.933 120.337,13.174 120.337,12.009 C120.337,9.923 121.952,8.901 124.059,8.778 C124.835,8.717 126.022,8.676 126.798,8.615 L126.798,8.37 C126.798,7.224 126.43,6.632 124.938,6.632 C123.957,6.632 122.689,6.836 121.749,7.143 C121.605,6.53 121.442,5.916 121.278,5.324 C122.464,4.813 124.202,4.486 125.633,4.486 C128.045,4.486 129.579,5.385 129.579,7.982 L129.579,12.785 L129.578,12.785 Z M124.772,10.392 C123.811,10.474 123.362,10.965 123.362,11.762 C123.362,12.601 123.77,13.05 124.732,13.05 C125.345,13.05 126.142,12.723 126.796,12.151 L126.796,10.229 L124.772,10.392 L124.772,10.392 Z" id="Shape"></path>
                <path d="M135.424,14.727 L132.521,14.727 L132.521,0.087 L135.445,0.087 L135.424,14.727 L135.424,14.727 Z" id="Shape"></path>
                <path d="M5.553,32.175 L2.997,32.175 L3.018,37.573 L-0.028,37.573 L-0.028,23.506 L5.308,23.506 C8.518,23.506 10.134,25.183 10.134,27.82 C10.133,29.845 8.866,32.175 5.553,32.175 L5.553,32.175 Z M2.997,25.633 L2.997,30.111 L4.98,30.111 C6.064,30.111 7.066,29.539 7.066,27.882 C7.066,26.287 6.125,25.633 4.878,25.633 L2.997,25.633 L2.997,25.633 Z" id="Shape"></path>
                <path d="M20.457,32.175 L20.457,33.218 L13.894,33.218 C13.894,34.752 14.61,35.57 16.409,35.57 C17.492,35.57 18.597,35.325 19.639,34.936 L20.232,36.736 C18.903,37.471 17.37,37.738 15.979,37.738 C11.931,37.738 10.949,35.325 10.949,32.564 C10.949,30.356 11.889,27.269 15.856,27.269 C20.171,27.269 20.457,30.376 20.457,32.175 L20.457,32.175 Z M13.935,31.419 L17.799,31.419 C17.778,30.09 17.37,29.129 15.979,29.129 C14.527,29.129 14.037,30.212 13.935,31.419 L13.935,31.419 Z" id="Shape"></path>
                <path d="M25.22,29.313 C26.324,28.23 27.919,27.269 29.043,27.269 C29.452,27.269 29.616,27.514 29.616,27.944 C29.616,28.7 29.125,30.233 28.696,30.827 L25.281,30.786 L25.281,37.574 L22.357,37.574 L22.357,27.535 L25.24,27.535 C25.24,28.005 25.178,28.782 25.117,29.253 L25.22,29.313 L25.22,29.313 Z" id="Shape"></path>
                <path d="M32.149,29.436 L30.738,29.436 L30.738,27.841 L32.17,27.432 L32.17,26.185 C32.17,24.263 33.008,22.75 35.973,22.75 C36.668,22.75 37.793,22.831 38.734,23.097 L38.386,25.08 C37.813,24.958 37.077,24.896 36.648,24.896 C35.606,24.896 35.012,25.244 35.012,26.225 L35.012,27.513 L37.895,27.513 L37.895,29.435 L35.012,29.435 C35.012,30.314 34.991,36.694 34.991,37.573 L32.149,37.573 L32.149,29.436 L32.149,29.436 Z" id="Shape"></path>
                <path d="M43.762,37.778 C40.041,37.778 38.753,35.447 38.753,32.564 C38.753,29.743 40.184,27.31 43.885,27.31 C47.626,27.31 48.914,29.743 48.914,32.543 C48.914,35.345 47.585,37.778 43.762,37.778 L43.762,37.778 Z M43.885,29.375 C42.208,29.375 41.758,30.99 41.758,32.564 C41.758,34.343 42.106,35.713 43.885,35.713 C45.541,35.713 45.889,34.22 45.889,32.564 C45.889,30.969 45.562,29.375 43.885,29.375 L43.885,29.375 Z" id="Shape"></path>
                <path d="M53.473,29.313 C54.577,28.23 56.172,27.269 57.297,27.269 C57.706,27.269 57.869,27.514 57.869,27.944 C57.869,28.7 57.378,30.233 56.949,30.827 L53.534,30.786 L53.534,37.574 L50.61,37.574 L50.61,27.535 L53.493,27.535 C53.493,28.005 53.432,28.782 53.371,29.253 L53.473,29.313 L53.473,29.313 Z" id="Shape"></path>
                <path d="M71.773,37.574 L71.773,31.215 C71.773,30.111 71.487,29.58 70.444,29.58 C69.81,29.58 68.87,29.887 68.298,30.274 C68.36,30.704 68.38,31.214 68.38,31.583 L68.38,37.574 L65.496,37.574 C65.496,35.386 65.475,33.198 65.475,31.011 C65.475,30.071 65.046,29.601 64.269,29.601 C63.594,29.601 62.756,29.908 62.061,30.336 L62.061,37.574 L59.137,37.574 L59.137,27.535 L61.877,27.535 L61.938,28.537 L62.02,28.578 C63.166,27.719 64.535,27.31 65.496,27.31 C66.642,27.31 67.419,27.718 67.93,28.619 C68.911,27.862 70.486,27.31 71.549,27.31 C74.228,27.31 74.718,28.966 74.718,30.847 L74.718,37.574 L71.773,37.574 L71.773,37.574 Z" id="Shape"></path>
                <path d="M85.572,35.631 L86.881,35.631 L87.024,37.267 C86.37,37.574 85.429,37.778 84.571,37.778 C83.691,37.778 83.057,37.574 82.956,36.572 C82.956,36.551 82.935,36.551 82.915,36.531 C81.504,37.758 80.012,37.778 79.439,37.778 C76.944,37.778 76.331,36.02 76.331,34.854 C76.331,32.769 77.946,31.747 80.053,31.624 C80.829,31.562 82.016,31.521 82.792,31.461 L82.792,31.215 C82.792,30.07 82.424,29.478 80.932,29.478 C79.951,29.478 78.683,29.682 77.743,29.989 C77.599,29.376 77.436,28.762 77.272,28.17 C78.458,27.659 80.196,27.332 81.627,27.332 C84.039,27.332 85.573,28.231 85.573,30.828 L85.573,35.631 L85.572,35.631 Z M80.767,33.239 C79.806,33.321 79.357,33.812 79.357,34.609 C79.357,35.447 79.765,35.897 80.727,35.897 C81.34,35.897 82.137,35.57 82.791,34.998 L82.791,33.076 L80.767,33.239 L80.767,33.239 Z" id="Shape"></path>
                <path d="M95.202,37.574 L95.202,31.358 C95.202,30.315 95.038,29.559 93.77,29.559 C93.095,29.559 92.155,29.907 91.48,30.315 L91.48,37.574 L88.536,37.574 L88.536,27.535 L91.316,27.535 L91.357,28.455 L91.439,28.496 C92.604,27.719 94.015,27.29 94.976,27.29 C97.634,27.29 98.125,28.864 98.125,30.745 L98.125,37.574 L95.202,37.574 L95.202,37.574 Z" id="Shape"></path>
                <path d="M105.198,35.508 C106.138,35.508 106.998,35.304 107.897,34.997 L108.449,36.939 C107.447,37.45 106.037,37.737 104.667,37.737 C100.823,37.737 99.821,35.446 99.821,32.666 C99.821,30.294 100.72,27.31 104.789,27.31 C105.648,27.31 106.772,27.391 107.918,27.8 C107.774,28.475 107.632,29.15 107.468,29.845 C106.61,29.6 105.873,29.559 105.28,29.559 C103.644,29.559 102.786,30.683 102.786,32.543 C102.786,34.384 103.379,35.508 105.198,35.508 L105.198,35.508 Z" id="Shape"></path>
                <path d="M118.981,32.175 L118.981,33.218 L112.419,33.218 C112.419,34.752 113.134,35.57 114.934,35.57 C116.017,35.57 117.122,35.325 118.164,34.936 L118.757,36.736 C117.428,37.471 115.895,37.738 114.504,37.738 C110.456,37.738 109.474,35.325 109.474,32.564 C109.474,30.356 110.415,27.269 114.382,27.269 C118.695,27.269 118.981,30.376 118.981,32.175 L118.981,32.175 Z M112.459,31.419 L116.324,31.419 C116.303,30.09 115.894,29.129 114.504,29.129 C113.053,29.129 112.562,30.212 112.459,31.419 L112.459,31.419 Z" id="Shape"></path>
                <path d="M0.155,60.419 L0.155,46.352 L3.14,46.352 L3.14,60.419 L0.155,60.419 L0.155,60.419 Z" id="Shape"></path>
                <path d="M12.463,60.419 L12.463,54.203 C12.463,53.16 12.299,52.403 11.032,52.403 C10.357,52.403 9.417,52.751 8.742,53.16 L8.742,60.419 L5.798,60.419 L5.798,50.38 L8.579,50.38 L8.62,51.3 L8.702,51.341 C9.868,50.564 11.278,50.134 12.239,50.134 C14.897,50.134 15.388,51.709 15.388,53.59 L15.388,60.419 L12.463,60.419 L12.463,60.419 Z" id="Shape"></path>
                <path d="M24.239,50.769 L24.239,45.8 L27.163,45.8 L27.163,60.419 L24.443,60.419 L24.381,59.52 C24.361,59.499 24.34,59.479 24.32,59.479 C23.339,60.276 22.091,60.563 21.233,60.563 C18.105,60.563 17.246,58.273 17.246,55.615 C17.246,52.507 18.391,50.135 21.581,50.135 C22.235,50.134 23.4,50.278 24.239,50.769 L24.239,50.769 Z M24.239,52.813 C23.769,52.527 22.869,52.261 22.215,52.261 C21.213,52.261 20.191,52.854 20.191,55.594 C20.191,57.966 21.07,58.518 22.174,58.518 C22.767,58.518 23.769,58.109 24.239,57.761 L24.239,52.813 L24.239,52.813 Z" id="Shape"></path>
                <path d="M38.202,55.021 L38.202,56.064 L31.639,56.064 C31.639,57.598 32.355,58.416 34.154,58.416 C35.237,58.416 36.342,58.171 37.384,57.782 L37.977,59.582 C36.648,60.317 35.115,60.584 33.724,60.584 C29.676,60.584 28.694,58.171 28.694,55.41 C28.694,53.202 29.634,50.115 33.601,50.115 C37.917,50.115 38.202,53.222 38.202,55.021 L38.202,55.021 Z M31.68,54.265 L35.544,54.265 C35.523,52.936 35.115,51.975 33.724,51.975 C32.273,51.975 31.782,53.058 31.68,54.265 L31.68,54.265 Z" id="Shape"></path>
                <path d="M44.355,56.698 L42.228,60.42 L39.1,60.42 L42.555,55.186 L39.366,50.381 L42.576,50.381 L44.396,53.775 L46.236,50.381 L49.364,50.381 L46.113,55.165 L49.528,60.42 L46.339,60.42 L44.355,56.698 L44.355,56.698 Z" id="Shape"></path>
            </g>
            <g id="Group" sketch:type="MSShapeGroup">
                <g transform="translate(17.000000, 16.000000)" id="Oval">
                    <g transform="translate(12.000000, 29.000000)" fill="#F5C817">
                        <circle cx="2.95" cy="15.95" r="2.95"></circle>
                        <circle cx="5.069" cy="9.069" r="2.069"></circle>
                        <circle cx="7.423" cy="4.423" r="1.423"></circle>
                        <circle cx="9.028" cy="1.028" r="1.028"></circle>
                    </g>
                    <g transform="translate(0.000000, 26.000000)" fill="#7D8FC8">
                        <circle cx="2.95" cy="6.95" r="2.95"></circle>
                        <circle cx="9.066" cy="4.066" r="2.066"></circle>
                        <circle cx="14.419" cy="2.419" r="1.419"></circle>
                        <circle cx="18.022" cy="1.022" r="1.022"></circle>
                    </g>
                    <g transform="translate(0.000000, 13.000000)" fill="#0B9BCC">
                        <circle cx="2.951" cy="2.951" r="2.951"></circle>
                        <circle cx="9.062" cy="5.062" r="2.062"></circle>
                        <circle cx="14.413" cy="7.413" r="1.413"></circle>
                        <circle cx="18.014" cy="9.014" r="1.014"></circle>
                    </g>
                    <g transform="translate(12.000000, 0.000000)" fill="#3CBCA3">
                        <circle cx="2.951" cy="2.951" r="2.951"></circle>
                        <circle cx="5.06" cy="10.06" r="2.06"></circle>
                        <circle cx="7.408" cy="15.408" r="1.408"></circle>
                        <circle cx="9.008" cy="19.008" r="1.008"></circle>
                    </g>
                </g>
                <g id="Oval">
                    <g transform="translate(37.000000, 52.000000)" fill="#F8951D">
                        <circle cx="3.645" cy="24.645" r="3.645"></circle>
                        <circle cx="3.796" cy="15.796" r="2.796"></circle>
                        <circle cx="3.149" cy="8.149" r="2.149"></circle>
                        <circle cx="3.585" cy="1.585" r="1.585"></circle>
                    </g>
                    <g transform="translate(11.000000, 48.000000)" fill="#F36E2B">
                        <circle cx="3.645" cy="18.645" r="3.645"></circle>
                        <circle cx="9.793" cy="11.793" r="2.793"></circle>
                        <circle cx="15.145" cy="6.145" r="2.145"></circle>
                        <circle cx="19.579" cy="1.579" r="1.579"></circle>
                    </g>
                    <g transform="translate(0.000000, 37.000000)" fill="#3175B9">
                        <circle cx="3.645" cy="3.645" r="3.645"></circle>
                        <circle cx="12.789" cy="3.789" r="2.789"></circle>
                        <circle cx="20.136" cy="3.136" r="2.136"></circle>
                        <circle cx="27.569" cy="3.569" r="1.569"></circle>
                    </g>
                    <g transform="translate(11.000000, 11.000000)" fill="#008C8C">
                        <circle cx="3.645" cy="3.645" r="3.645"></circle>
                        <circle cx="9.785" cy="9.785" r="2.785"></circle>
                        <circle cx="15.129" cy="15.129" r="2.129"></circle>
                        <circle cx="20.561" cy="19.561" r="1.561"></circle>
                    </g>
                    <g transform="translate(37.000000, 0.000000)" fill="#2DB45D">
                        <circle cx="3.645" cy="3.645" r="3.645"></circle>
                        <circle cx="3.784" cy="12.784" r="2.784"></circle>
                        <circle cx="3.129" cy="20.129" r="2.129"></circle>
                        <circle cx="3.56" cy="27.56" r="1.56"></circle>
                    </g>
                </g>
            </g>
        </g>
    </g>
</svg>