<?xml version="1.0" encoding="UTF-8" standalone="no"?>
<svg width="30px" height="30px" viewBox="0 0 30 30" version="1.1" xmlns="http://www.w3.org/2000/svg" xmlns:xlink="http://www.w3.org/1999/xlink" xmlns:sketch="http://www.bohemiancoding.com/sketch/ns">
    <!-- Generator: Sketch 3.0.1 (7597) - http://www.bohemiancoding.com/sketch -->
    <title>Slice 1</title>
    <description>Created with Sketch.</description>
    <defs></defs>
    <g id="Page-1" stroke="none" stroke-width="1" fill="none" fill-rule="evenodd" sketch:type="MSPage">
        <g id="Group" sketch:type="MSLayerGroup" transform="translate(-0.500000, 1.500000)"></g>
        <path d="M1.47239264,3 L0,3 L0,6 L1.47239264,6 L28.5276074,6 L30,6 L30,3 L28.5276074,3 L1.47239264,3 Z" id="Line-2" fill="#3A3736" sketch:type="MSShapeGroup"></path>
        <path d="M1.47239264,9 L0,9 L0,12 L1.47239264,12 L28.5276074,12 L30,12 L30,9 L28.5276074,9 L1.47239264,9 Z" id="Line-5" fill="#3A3736" sketch:type="MSShapeGroup"></path>
        <path d="M1.47239264,15 L0,15 L0,18 L1.47239264,18 L28.5276074,18 L30,18 L30,15 L28.5276074,15 L1.47239264,15 Z" id="Line-6" fill="#3A3736" sketch:type="MSShapeGroup"></path>
        <path d="M1.47239264,21 L0,21 L0,24 L1.47239264,24 L28.5276074,24 L30,24 L30,21 L28.5276074,21 L1.47239264,21 Z" id="Line-7" fill="#3A3736" sketch:type="MSShapeGroup"></path>
        <path d="M1.47239264,27 L0,27 L0,30 L1.47239264,30 L28.5276074,30 L30,30 L30,27 L28.5276074,27 L1.47239264,27 Z" id="Line-8" fill="#3A3736" sketch:type="MSShapeGroup"></path>
    </g>
</svg>